<svg width="78" height="34" viewBox="0 0 78 34" fill="none" xmlns="http://www.w3.org/2000/svg">
<rect x="0.25" y="0.25" width="77.5" height="33.5" stroke="#950740" stroke-width="0.5"/>
<path d="M12.9484 8.6H14.2684V15.8H16.4404V17H12.9484V8.6ZM21.7403 8.6H23.5283L24.8963 17H23.5763L23.3363 15.332V15.356H21.8363L21.5963 17H20.3723L21.7403 8.6ZM23.1803 14.216L22.5923 10.064H22.5683L21.9923 14.216H23.1803ZM30.8175 17.12C30.1775 17.12 29.6935 16.94 29.3655 16.58C29.0375 16.212 28.8735 15.688 28.8735 15.008V14.528H30.1215V15.104C30.1215 15.648 30.3495 15.92 30.8055 15.92C31.0295 15.92 31.1975 15.856 31.3095 15.728C31.4295 15.592 31.4895 15.376 31.4895 15.08C31.4895 14.728 31.4095 14.42 31.2495 14.156C31.0895 13.884 30.7935 13.56 30.3615 13.184C29.8175 12.704 29.4375 12.272 29.2215 11.888C29.0055 11.496 28.8975 11.056 28.8975 10.568C28.8975 9.904 29.0655 9.392 29.4015 9.032C29.7375 8.664 30.2255 8.48 30.8655 8.48C31.4975 8.48 31.9735 8.664 32.2935 9.032C32.6215 9.392 32.7855 9.912 32.7855 10.592V10.94H31.5375V10.508C31.5375 10.22 31.4815 10.012 31.3695 9.884C31.2575 9.748 31.0935 9.68 30.8775 9.68C30.4375 9.68 30.2175 9.948 30.2175 10.484C30.2175 10.788 30.2975 11.072 30.4575 11.336C30.6255 11.6 30.9255 11.92 31.3575 12.296C31.9095 12.776 32.2895 13.212 32.4975 13.604C32.7055 13.996 32.8095 14.456 32.8095 14.984C32.8095 15.672 32.6375 16.2 32.2935 16.568C31.9575 16.936 31.4655 17.12 30.8175 17.12ZM38.1983 9.8H36.8183V8.6H40.8983V9.8H39.5183V17H38.1983V9.8ZM44.2585 15.728H45.5305V17H44.2585V15.728ZM50.1203 8.6H53.6123V9.8H51.4403V12.14H53.1443V13.34H51.4403V17H50.1203V8.6ZM57.8453 8.6H59.7293L60.5693 14.612H60.5933L61.4333 8.6H63.3173V17H62.0693V10.64H62.0453L61.0853 17H59.9813L59.0213 10.64H58.9973V17H57.8453V8.6ZM21.8068 27.12C21.1748 27.12 20.6908 26.94 20.3548 26.58C20.0268 26.22 19.8628 25.712 19.8628 25.056V20.544C19.8628 19.888 20.0268 19.38 20.3548 19.02C20.6908 18.66 21.1748 18.48 21.8068 18.48C22.4388 18.48 22.9188 18.66 23.2468 19.02C23.5828 19.38 23.7508 19.888 23.7508 20.544V21.432H22.5028V20.46C22.5028 19.94 22.2828 19.68 21.8428 19.68C21.4028 19.68 21.1828 19.94 21.1828 20.46V25.152C21.1828 25.664 21.4028 25.92 21.8428 25.92C22.2828 25.92 22.5028 25.664 22.5028 25.152V23.868H23.7508V25.056C23.7508 25.712 23.5828 26.22 23.2468 26.58C22.9188 26.94 22.4388 27.12 21.8068 27.12ZM28.1406 18.6H29.4606V25.8H31.6326V27H28.1406V18.6ZM37.7267 27.12C37.0787 27.12 36.5827 26.936 36.2387 26.568C35.8947 26.2 35.7227 25.68 35.7227 25.008V20.592C35.7227 19.92 35.8947 19.4 36.2387 19.032C36.5827 18.664 37.0787 18.48 37.7267 18.48C38.3747 18.48 38.8707 18.664 39.2147 19.032C39.5587 19.4 39.7307 19.92 39.7307 20.592V25.008C39.7307 25.68 39.5587 26.2 39.2147 26.568C38.8707 26.936 38.3747 27.12 37.7267 27.12ZM37.7267 25.92C38.1827 25.92 38.4107 25.644 38.4107 25.092V20.508C38.4107 19.956 38.1827 19.68 37.7267 19.68C37.2707 19.68 37.0427 19.956 37.0427 20.508V25.092C37.0427 25.644 37.2707 25.92 37.7267 25.92ZM44.2234 18.6H45.8794L47.1634 23.628H47.1874V18.6H48.3634V27H47.0074L45.4234 20.868H45.3994V27H44.2234V18.6ZM52.9445 18.6H56.5445V19.8H54.2645V22.02H56.0765V23.22H54.2645V25.8H56.5445V27H52.9445V18.6Z" fill="#F5F5F5"/>
</svg>
