<svg width="52" height="20" viewBox="0 0 52 20" fill="none" xmlns="http://www.w3.org/2000/svg">
<path d="M0.948379 0.599999H2.26838V7.8H4.44038V9H0.948379V0.599999ZM9.74025 0.599999H11.5283L12.8963 9H11.5763L11.3363 7.332V7.356H9.83625L9.59625 9H8.37225L9.74025 0.599999ZM11.1803 6.216L10.5923 2.064H10.5683L9.99225 6.216H11.1803ZM18.8175 9.12C18.1775 9.12 17.6935 8.94 17.3655 8.58C17.0375 8.212 16.8735 7.688 16.8735 7.008V6.528H18.1215V7.104C18.1215 7.648 18.3495 7.92 18.8055 7.92C19.0295 7.92 19.1975 7.856 19.3095 7.728C19.4295 7.592 19.4895 7.376 19.4895 7.08C19.4895 6.728 19.4095 6.42 19.2495 6.156C19.0895 5.884 18.7935 5.56 18.3615 5.184C17.8175 4.704 17.4375 4.272 17.2215 3.888C17.0055 3.496 16.8975 3.056 16.8975 2.568C16.8975 1.904 17.0655 1.392 17.4015 1.032C17.7375 0.664 18.2255 0.48 18.8655 0.48C19.4975 0.48 19.9735 0.664 20.2935 1.032C20.6215 1.392 20.7855 1.912 20.7855 2.592V2.94H19.5375V2.508C19.5375 2.22 19.4815 2.012 19.3695 1.884C19.2575 1.748 19.0935 1.68 18.8775 1.68C18.4375 1.68 18.2175 1.948 18.2175 2.484C18.2175 2.788 18.2975 3.072 18.4575 3.336C18.6255 3.6 18.9255 3.92 19.3575 4.296C19.9095 4.776 20.2895 5.212 20.4975 5.604C20.7055 5.996 20.8095 6.456 20.8095 6.984C20.8095 7.672 20.6375 8.2 20.2935 8.568C19.9575 8.936 19.4655 9.12 18.8175 9.12ZM26.1983 1.8H24.8183V0.599999H28.8983V1.8H27.5183V9H26.1983V1.8ZM32.2585 7.728H33.5305V9H32.2585V7.728ZM38.1203 0.599999H41.6123V1.8H39.4403V4.14H41.1443V5.34H39.4403V9H38.1203V0.599999ZM45.8453 0.599999H47.7293L48.5693 6.612H48.5933L49.4333 0.599999H51.3173V9H50.0693V2.64H50.0453L49.0853 9H47.9813L47.0213 2.64H46.9973V9H45.8453V0.599999ZM9.80682 19.12C9.17481 19.12 8.69081 18.94 8.35481 18.58C8.02681 18.22 7.86281 17.712 7.86281 17.056V12.544C7.86281 11.888 8.02681 11.38 8.35481 11.02C8.69081 10.66 9.17481 10.48 9.80682 10.48C10.4388 10.48 10.9188 10.66 11.2468 11.02C11.5828 11.38 11.7508 11.888 11.7508 12.544V13.432H10.5028V12.46C10.5028 11.94 10.2828 11.68 9.84282 11.68C9.40282 11.68 9.18282 11.94 9.18282 12.46V17.152C9.18282 17.664 9.40282 17.92 9.84282 17.92C10.2828 17.92 10.5028 17.664 10.5028 17.152V15.868H11.7508V17.056C11.7508 17.712 11.5828 18.22 11.2468 18.58C10.9188 18.94 10.4388 19.12 9.80682 19.12ZM16.1406 10.6H17.4606V17.8H19.6326V19H16.1406V10.6ZM25.7267 19.12C25.0787 19.12 24.5827 18.936 24.2387 18.568C23.8947 18.2 23.7227 17.68 23.7227 17.008V12.592C23.7227 11.92 23.8947 11.4 24.2387 11.032C24.5827 10.664 25.0787 10.48 25.7267 10.48C26.3747 10.48 26.8707 10.664 27.2147 11.032C27.5587 11.4 27.7307 11.92 27.7307 12.592V17.008C27.7307 17.68 27.5587 18.2 27.2147 18.568C26.8707 18.936 26.3747 19.12 25.7267 19.12ZM25.7267 17.92C26.1827 17.92 26.4107 17.644 26.4107 17.092V12.508C26.4107 11.956 26.1827 11.68 25.7267 11.68C25.2707 11.68 25.0427 11.956 25.0427 12.508V17.092C25.0427 17.644 25.2707 17.92 25.7267 17.92ZM32.2234 10.6H33.8794L35.1634 15.628H35.1874V10.6H36.3634V19H35.0074L33.4234 12.868H33.3994V19H32.2234V10.6ZM40.9445 10.6H44.5445V11.8H42.2645V14.02H44.0765V15.22H42.2645V17.8H44.5445V19H40.9445V10.6Z" fill="#F5F5F5"/>
</svg>
