<?xml version="1.0"?>
<svg fill="grey" id="Layer_1" style="enable-background:new 0 0 100 100;" version="1.1" viewBox="0 0 100 100" xml:space="preserve" xmlns="http://www.w3.org/2000/svg" xmlns:xlink="http://www.w3.org/1999/xlink">
    <path d="M95.895,48.211l-45-22.5c-0.619-0.31-1.356-0.277-1.946,0.088C48.359,26.163,48,26.807,48,27.5v19.264L5.895,25.711  c-0.62-0.31-1.355-0.277-1.946,0.088C3.359,26.163,3,26.807,3,27.5v45c0,0.693,0.359,1.337,0.948,1.701C4.27,74.4,4.635,74.5,5,74.5  c0.306,0,0.612-0.07,0.895-0.211L48,53.236V72.5c0,0.693,0.359,1.337,0.948,1.701C49.27,74.4,49.635,74.5,50,74.5  c0.306,0,0.612-0.07,0.895-0.211l45-22.5C96.572,51.45,97,50.757,97,50S96.572,48.55,95.895,48.211z M7,69.264V30.736L45.528,50  L7,69.264z M52,69.264V30.736L90.528,50L52,69.264z" />
</svg>