<?xml version="1.0"?>
<svg id="Layer_1" fill="grey" style="enable-background:new 0 0 100 100;" version="1.1" viewBox="0 0 100 100" xml:space="preserve" xmlns="http://www.w3.org/2000/svg" xmlns:xlink="http://www.w3.org/1999/xlink">
    <path d="M96.052,25.799c-0.591-0.365-1.327-0.397-1.946-0.088L52,46.764V27.5c0-0.693-0.359-1.337-0.948-1.701  c-0.591-0.365-1.326-0.397-1.946-0.088l-45,22.5C3.428,48.55,3,49.243,3,50s0.428,1.45,1.105,1.789l45,22.5  C49.388,74.43,49.694,74.5,50,74.5c0.365,0,0.73-0.1,1.052-0.299C51.641,73.837,52,73.193,52,72.5V53.236l42.105,21.053  C94.388,74.43,94.694,74.5,95,74.5c0.365,0,0.73-0.1,1.052-0.299C96.641,73.837,97,73.193,97,72.5v-45  C97,26.807,96.641,26.163,96.052,25.799z M48,69.264L9.472,50L48,30.736V69.264z M93,69.264L54.472,50L93,30.736V69.264z" />
</svg>